<mxfile host="app.diagrams.net" modified="2024-02-12T23:36:33.553Z" agent="Mozilla/5.0 (X11; Linux x86_64) AppleWebKit/537.36 (KHTML, like Gecko) Chrome/121.0.0.0 Safari/537.36" etag="ZFk8kz8yw2yZot4kanBK" version="23.1.3" type="github">
  <diagram id="C5RBs43oDa-KdzZeNtuy" name="Page-1">
    <mxGraphModel dx="1674" dy="793" grid="1" gridSize="10" guides="1" tooltips="1" connect="1" arrows="1" fold="1" page="1" pageScale="1" pageWidth="827" pageHeight="1169" math="0" shadow="0">
      <root>
        <mxCell id="WIyWlLk6GJQsqaUBKTNV-0" />
        <mxCell id="WIyWlLk6GJQsqaUBKTNV-1" parent="WIyWlLk6GJQsqaUBKTNV-0" />
        <mxCell id="U-G2DfCZNgICyu_wtQi4-2" value="" style="edgeStyle=orthogonalEdgeStyle;rounded=0;orthogonalLoop=1;jettySize=auto;html=1;" edge="1" parent="WIyWlLk6GJQsqaUBKTNV-1" source="U-G2DfCZNgICyu_wtQi4-0" target="U-G2DfCZNgICyu_wtQi4-1">
          <mxGeometry relative="1" as="geometry" />
        </mxCell>
        <mxCell id="U-G2DfCZNgICyu_wtQi4-0" value="Start" style="ellipse;whiteSpace=wrap;html=1;" vertex="1" parent="WIyWlLk6GJQsqaUBKTNV-1">
          <mxGeometry x="270" y="40" width="120" height="80" as="geometry" />
        </mxCell>
        <mxCell id="U-G2DfCZNgICyu_wtQi4-4" value="" style="edgeStyle=orthogonalEdgeStyle;rounded=0;orthogonalLoop=1;jettySize=auto;html=1;" edge="1" parent="WIyWlLk6GJQsqaUBKTNV-1" source="U-G2DfCZNgICyu_wtQi4-1" target="U-G2DfCZNgICyu_wtQi4-3">
          <mxGeometry relative="1" as="geometry" />
        </mxCell>
        <mxCell id="U-G2DfCZNgICyu_wtQi4-1" value="Define Initial Customer Data" style="whiteSpace=wrap;html=1;" vertex="1" parent="WIyWlLk6GJQsqaUBKTNV-1">
          <mxGeometry x="270" y="170" width="120" height="60" as="geometry" />
        </mxCell>
        <mxCell id="U-G2DfCZNgICyu_wtQi4-6" value="" style="edgeStyle=orthogonalEdgeStyle;rounded=0;orthogonalLoop=1;jettySize=auto;html=1;" edge="1" parent="WIyWlLk6GJQsqaUBKTNV-1" source="U-G2DfCZNgICyu_wtQi4-3" target="U-G2DfCZNgICyu_wtQi4-5">
          <mxGeometry relative="1" as="geometry" />
        </mxCell>
        <mxCell id="U-G2DfCZNgICyu_wtQi4-3" value="Define process_Customers function" style="whiteSpace=wrap;html=1;" vertex="1" parent="WIyWlLk6GJQsqaUBKTNV-1">
          <mxGeometry x="270" y="310" width="120" height="60" as="geometry" />
        </mxCell>
        <mxCell id="U-G2DfCZNgICyu_wtQi4-8" value="" style="edgeStyle=orthogonalEdgeStyle;rounded=0;orthogonalLoop=1;jettySize=auto;html=1;" edge="1" parent="WIyWlLk6GJQsqaUBKTNV-1" source="U-G2DfCZNgICyu_wtQi4-5" target="U-G2DfCZNgICyu_wtQi4-7">
          <mxGeometry relative="1" as="geometry" />
        </mxCell>
        <mxCell id="U-G2DfCZNgICyu_wtQi4-5" value="Process Initial Customer data" style="whiteSpace=wrap;html=1;" vertex="1" parent="WIyWlLk6GJQsqaUBKTNV-1">
          <mxGeometry x="270" y="450" width="120" height="60" as="geometry" />
        </mxCell>
        <mxCell id="U-G2DfCZNgICyu_wtQi4-10" value="" style="edgeStyle=orthogonalEdgeStyle;rounded=0;orthogonalLoop=1;jettySize=auto;html=1;" edge="1" parent="WIyWlLk6GJQsqaUBKTNV-1" source="U-G2DfCZNgICyu_wtQi4-7" target="U-G2DfCZNgICyu_wtQi4-9">
          <mxGeometry relative="1" as="geometry" />
        </mxCell>
        <mxCell id="U-G2DfCZNgICyu_wtQi4-7" value="Update and add Initial customer data" style="whiteSpace=wrap;html=1;" vertex="1" parent="WIyWlLk6GJQsqaUBKTNV-1">
          <mxGeometry x="270" y="590" width="120" height="60" as="geometry" />
        </mxCell>
        <mxCell id="U-G2DfCZNgICyu_wtQi4-12" value="" style="edgeStyle=orthogonalEdgeStyle;rounded=0;orthogonalLoop=1;jettySize=auto;html=1;" edge="1" parent="WIyWlLk6GJQsqaUBKTNV-1" source="U-G2DfCZNgICyu_wtQi4-9" target="U-G2DfCZNgICyu_wtQi4-11">
          <mxGeometry relative="1" as="geometry" />
        </mxCell>
        <mxCell id="U-G2DfCZNgICyu_wtQi4-9" value="Read Customer data from Input File" style="whiteSpace=wrap;html=1;" vertex="1" parent="WIyWlLk6GJQsqaUBKTNV-1">
          <mxGeometry x="270" y="730" width="120" height="60" as="geometry" />
        </mxCell>
        <mxCell id="U-G2DfCZNgICyu_wtQi4-14" value="" style="edgeStyle=orthogonalEdgeStyle;rounded=0;orthogonalLoop=1;jettySize=auto;html=1;" edge="1" parent="WIyWlLk6GJQsqaUBKTNV-1" source="U-G2DfCZNgICyu_wtQi4-11" target="U-G2DfCZNgICyu_wtQi4-13">
          <mxGeometry relative="1" as="geometry" />
        </mxCell>
        <mxCell id="U-G2DfCZNgICyu_wtQi4-11" value="Process customer data" style="whiteSpace=wrap;html=1;" vertex="1" parent="WIyWlLk6GJQsqaUBKTNV-1">
          <mxGeometry x="270" y="870" width="120" height="60" as="geometry" />
        </mxCell>
        <mxCell id="U-G2DfCZNgICyu_wtQi4-16" value="" style="edgeStyle=orthogonalEdgeStyle;rounded=0;orthogonalLoop=1;jettySize=auto;html=1;" edge="1" parent="WIyWlLk6GJQsqaUBKTNV-1" source="U-G2DfCZNgICyu_wtQi4-13" target="U-G2DfCZNgICyu_wtQi4-15">
          <mxGeometry relative="1" as="geometry" />
        </mxCell>
        <mxCell id="U-G2DfCZNgICyu_wtQi4-13" value="Write Processed Data to output file" style="whiteSpace=wrap;html=1;" vertex="1" parent="WIyWlLk6GJQsqaUBKTNV-1">
          <mxGeometry x="270" y="1010" width="120" height="60" as="geometry" />
        </mxCell>
        <mxCell id="U-G2DfCZNgICyu_wtQi4-18" value="" style="edgeStyle=orthogonalEdgeStyle;rounded=0;orthogonalLoop=1;jettySize=auto;html=1;" edge="1" parent="WIyWlLk6GJQsqaUBKTNV-1" source="U-G2DfCZNgICyu_wtQi4-15" target="U-G2DfCZNgICyu_wtQi4-17">
          <mxGeometry relative="1" as="geometry" />
        </mxCell>
        <mxCell id="U-G2DfCZNgICyu_wtQi4-15" value="Define Manipulate String Functgions" style="whiteSpace=wrap;html=1;" vertex="1" parent="WIyWlLk6GJQsqaUBKTNV-1">
          <mxGeometry x="270" y="1150" width="120" height="60" as="geometry" />
        </mxCell>
        <mxCell id="U-G2DfCZNgICyu_wtQi4-17" value="End" style="ellipse;whiteSpace=wrap;html=1;" vertex="1" parent="WIyWlLk6GJQsqaUBKTNV-1">
          <mxGeometry x="275" y="1280" width="110" height="80" as="geometry" />
        </mxCell>
      </root>
    </mxGraphModel>
  </diagram>
</mxfile>
